 Abraham Lincoln: Vampire Hunter [2012] BRRip 480p Dual Audio [Eng-Hindi(Cam)]

Abraham Lincoln: Vampire Hunter (2012)

105 min - Action | Fantasy | Horror - 22 June 2012 (Pakistan)

Ratings: 6.1/10 from 32,811 users Metascore: 42/100

Reviews: 210 user | 274 critic | 35 from Metacritic.com


Abraham Lincoln, the 16th President of the United States, discovers vampires are planning to take over the United States. He makes it his mission to eliminate them.
Director: Timur Bekmambetov

Writers: Seth Grahame-Smith (screenplay), Seth Grahame-Smith (novel)

Stars: Benjamin Walker, Rufus Sewell and Dominic Cooper | See full cast and crew



General

Unique ID : 204574209919699201094985778388198395709 (0x99E78F46C10874A6ABF3BB71952A8F3D)

Complete name : E:DwnldAbraham Lincoln Vampire Hunter 2012Abraham Lincoln Vampire Hunter [2012] BRRip 480p Dual Audio [Eng-Hindi(Cam)] Team ExDRS.mkv

Format : Matroska

Format version : Version 2

File size : 398 MiB

Duration : 1h 45mn

Overall bit rate : 530 Kbps

Movie name : Encoded by apextream

Encoded date : UTC 2012-10-21 01:36:56

Writing application : mkvmerge v5.8.0 ('No Sleep / Pillow') built on Sep 2 2012 15:37:04

Writing library : libebml v1.2.3 + libmatroska v1.3.0
Video

ID : 1

Format : AVC

Format/Info : Advanced Video Codec

Format profile : High 10@L4.1

Format settings, CABAC : Yes

Format settings, ReFrames : 16 frames

Muxing mode : Header stripping

Codec ID : V_MPEG4/ISO/AVC

Bit rate : 401 Kbps

Width : 720 pixels

Height : 304 pixels

Display aspect ratio : 16:9

Original display aspect ratio : 2.35:1

Frame rate mode : Variable

Original frame rate : 23.976 fps

Color space : YUV

Chroma subsampling : 4:2:0

Bit depth : 10 bits

Scan type : Progressive

Bits/(Pixel*Frame) : 0.076

Title : apextream

Writing library : x264 core 125 r2208 d9d2288

Encoding settings : cabac=1 / ref=16 / deblock=1:-3:-1 / analyse=0x3:0x133 / me=umh / subme=10 / psy=1 / psy_rd=1.00:2.00 / mixed_ref=1 / me_range=24 / chroma_me=1 / trellis=2 / 8x8dct=1 / cqm=0 / deadzone=21,11 / fast_pskip=1 / chroma_qp_offset=-6 / threads=12 / lookahead_threads=2 / sliced_threads=0 / nr=0 / decimate=1 / interlaced=0 / bluray_compat=0 / constrained_intra=0 / bframes=8 / b_pyramid=2 / b_adapt=2 / b_bias=0 / direct=3 / weightb=1 / open_gop=0 / weightp=2 / keyint=240 / keyint_min=23 / scenecut=40 / intra_refresh=0 / rc_lookahead=60 / rc=2pass / mbtree=1 / bitrate=401 / ratetol=1.0 / qcomp=0.60 / qpmin=0 / qpmax=81 / qpstep=4 / cplxblur=20.0 / qblur=0.5 / vbv_maxrate=50000 / vbv_bufsize=50000 / nal_hrd=none / ip_ratio=1.40 / aq=1:1.00

Language : English

Default : Yes

Forced : No
Audio #1

ID : 2

Format : MPEG Audio

Format version : Version 1

Format profile : Layer 3

Mode : Joint stereo

Mode extension : MS Stereo

Muxing mode : Header stripping

Codec ID : A_MPEG/L3

Codec ID/Hint : MP3

Duration : 1h 45mn

Bit rate mode : Constant

Bit rate : 64.0 Kbps

Channel(s) : 2 channels

Sampling rate : 48.0 KHz

Compression mode : Lossy

Stream size : 48.1 MiB (12%)

Title : apextream

Writing library : LAME3.98.2

Language : English

Default : No

Forced : No
Audio #2

ID : 3

Format : MPEG Audio

Format version : Version 1

Format profile : Layer 3

Mode : Joint stereo

Mode extension : MS Stereo

Muxing mode : Header stripping

Codec ID : A_MPEG/L3

Codec ID/Hint : MP3

Duration : 1h 45mn

Bit rate mode : Constant

Bit rate : 64.0 Kbps

Channel(s) : 2 channels

Sampling rate : 48.0 KHz

Compression mode : Lossy

Stream size : 48.1 MiB (12%)

Title : apextream

Writing library : LAME3.98.2

Language : Hindi

Default : Yes

Forced : No
Category:	Movies
Size:	405.11 MB